HIERARCHY
ROOT Hips
{
	OFFSET -3.958830 18.904000 13.208200
	CHANNELS 6 Xposition Yposition Zposition Zrotation Yrotation Xrotation 
	JOINT LHipJoint
	{
		OFFSET 0.000000 0.000000 0.000000
		CHANNELS 3 Zrotation Yrotation Xrotation
		JOINT LeftUpLeg
		{
			OFFSET 1.800000 -1.400000 0.085000
			CHANNELS 3 Zrotation Yrotation Xrotation
			JOINT LeftLeg
			{
				OFFSET 2.215000 -6.000000 0.000000
				CHANNELS 3 Zrotation Yrotation Xrotation
				JOINT LeftFoot
				{
					OFFSET 2.500000 -6.900000 0.000000
					CHANNELS 3 Zrotation Yrotation Xrotation
					JOINT LeftToeBase
					{
						OFFSET 0.200000 -0.500000 1.950000
						CHANNELS 3 Zrotation Yrotation Xrotation
						End Site
						{
							OFFSET 0.000000 0.000000 0.000000
						}
					}
				}
			}
		}
	}
	JOINT RHipJoint
	{
		OFFSET 0.000000 0.000000 0.000000
		CHANNELS 3 Zrotation Yrotation Xrotation
		JOINT RightUpLeg
		{
			OFFSET -1.800000 -1.400000 0.085000
			CHANNELS 3 Zrotation Yrotation Xrotation
			JOINT RightLeg
			{
				OFFSET -2.215000 -6.000000 0.000000
				CHANNELS 3 Zrotation Yrotation Xrotation
				JOINT RightFoot
				{
					OFFSET -2.500000 -6.900000 0.000000
					CHANNELS 3 Zrotation Yrotation Xrotation
					JOINT RightToeBase
					{
						OFFSET -0.200000 -0.500000 1.950000
						CHANNELS 3 Zrotation Yrotation Xrotation
						End Site
						{
							OFFSET 0.000000 0.000000 0.000000
						}
					}
				}
			}
		}
	}
	JOINT LowerBack
	{
		OFFSET 0.000000 0.000000 0.000000
		CHANNELS 3 Zrotation Yrotation Xrotation
		JOINT Spine
		{
			OFFSET -0.087000 1.940000 -0.288900
			CHANNELS 3 Zrotation Yrotation Xrotation
			JOINT Spine1
			{
				OFFSET 0.000000 1.950000 0.060000
				CHANNELS 3 Zrotation Yrotation Xrotation
				JOINT Neck
				{
					OFFSET 0.000000 0.000000 0.000000
					CHANNELS 3 Zrotation Yrotation Xrotation
					JOINT Neck1
					{
						OFFSET 0.000000 1.600000 0.340000
						CHANNELS 3 Zrotation Yrotation Xrotation
						JOINT Head
						{
							OFFSET 0.000000 1.667000 -0.240000
							CHANNELS 3 Zrotation Yrotation Xrotation
							End Site
							{
								OFFSET 0.000000 0.000000 0.000000
							}
						}
					}
				}
				JOINT LeftShoulder
				{
					OFFSET 0.000000 0.000000 0.000000
					CHANNELS 3 Zrotation Yrotation Xrotation
					JOINT LeftArm
					{
						OFFSET 2.700000 1.550000 -0.730000
						CHANNELS 3 Zrotation Yrotation Xrotation
						JOINT LeftForeArm
						{
							OFFSET 5.450000 0.000000 0.000000
							CHANNELS 3 Zrotation Yrotation Xrotation
							JOINT LeftHand
							{
								OFFSET 3.450000 0.000000 0.000000
								CHANNELS 3 Zrotation Yrotation Xrotation
								JOINT LeftHandIndex1
								{
									OFFSET 0.750000 0.000000 0.000000
									CHANNELS 3 Zrotation Yrotation Xrotation
									End Site
									{
										OFFSET 0.000000 0.000000 0.000000
									}
								}
							}
						}
					}
				}
				JOINT RightShoulder
				{
					OFFSET 0.000000 0.000000 0.000000
					CHANNELS 3 Zrotation Yrotation Xrotation
					JOINT RightArm
					{
						OFFSET -2.700000 1.550000 -0.730000
						CHANNELS 3 Zrotation Yrotation Xrotation
						JOINT RightForeArm
						{
							OFFSET -5.450000 0.000000 0.000000
							CHANNELS 3 Zrotation Yrotation Xrotation
							JOINT RightHand
							{
								OFFSET -3.450000 0.000000 0.000000
								CHANNELS 3 Zrotation Yrotation Xrotation
								JOINT RightHandIndex1
								{
									OFFSET -0.750000 0.000000 0.000000
									CHANNELS 3 Zrotation Yrotation Xrotation
									End Site
									{
										OFFSET 0.000000 0.000000 0.000000
									}
								}
							}
						}
					}
				}
			}
		}
	}
}
MOTION
Frames: 10
Frame Time: 0.016667
-0.997590 16.451560 -4.526260 2.620017 -18.132889 -12.932887 -15.037340 13.514587 3.651722 23.005803 -1.794692 -20.321482 -5.064305 5.316698 8.571066 -0.125642 4.087278 2.925943 0.327130 0.297920 0.168420 18.267516 -10.269102 2.841270 -5.715972 4.234935 -27.748062 2.852620 -8.122909 40.329530 -0.533805 -5.388824 2.350547 0.157390 -0.020450 0.072060 -3.475350 -3.364546 -8.364615 2.734735 -9.710526 27.160845 -10.981569 -6.527550 11.851769 3.144053 -3.493152 -16.926430 -13.687874 7.067737 47.471113 3.484290 -0.079840 -5.451290 -7.738703 -31.544503 6.352313 -8.559023 -27.470353 3.318724 -0.533018 -4.145459 0.031788 -3.830198 2.697218 0.238260 -0.082540 0.144180 0.126230 1.468730 31.862806 8.849229 2.238424 15.196911 -6.102489 38.742745 72.108951 26.279592 2.089169 -1.894856 0.025840 0.117650 -0.093520 -0.019320 
-0.984160 16.512630 -4.428000 3.516616 -19.975725 -11.977792 -15.037662 13.529899 3.610396 24.631043 -1.725346 -17.703430 -5.641174 5.763813 8.676967 -0.057988 4.447020 2.814097 0.290280 0.251990 0.160730 18.283438 -10.296235 2.709392 -5.803058 3.681231 -27.749259 1.769591 -7.370338 38.645360 -0.440834 -5.042296 2.475065 0.130370 -0.009770 0.083010 -3.494634 -3.348995 -8.240330 2.875542 -11.412413 24.993840 -13.891320 -8.054841 12.593710 4.517645 -3.193095 -16.033264 -11.683944 6.579154 44.235329 1.738790 0.690540 -5.157940 -8.308438 -26.670028 7.632827 -9.133550 -20.971104 2.824813 -1.506097 -2.769526 -0.046082 -3.821450 2.741555 0.208360 -0.051620 0.120010 0.113530 -0.940070 26.801538 8.151575 -1.760340 12.727110 -5.038314 45.046247 86.622544 38.059309 2.160941 -1.987726 0.023230 0.093940 -0.083830 -0.025480 
-0.984310 16.578470 -4.341550 4.435622 -21.280172 -10.930320 -15.030998 13.466045 3.565721 25.829497 -1.767977 -15.537055 -6.280893 6.199960 9.030351 0.003128 4.745501 2.729760 0.261380 0.217970 0.154800 18.298336 -10.406459 2.622114 -5.836439 3.215139 -27.869095 0.653060 -6.585886 36.799297 -0.357802 -4.686531 2.603507 0.109220 0.004160 0.094790 -3.526735 -3.047971 -8.165373 3.207166 -12.192044 23.014503 -15.960346 -8.957084 11.672863 5.739682 -2.876749 -14.076047 -9.507653 5.714492 41.916313 0.318400 1.257450 -4.799290 -9.322201 -23.217897 8.906925 -10.108957 -14.894221 2.259273 -2.830492 -2.973454 -0.038508 -3.771472 2.848876 0.175750 -0.021780 0.100520 0.109430 -2.307592 23.398608 4.880309 -3.681086 8.081240 -8.426300 135.039677 81.211222 131.413411 1.809454 -0.649692 0.024020 0.074330 -0.081800 -0.025370 
-0.971750 16.646350 -4.272430 5.362150 -23.009319 -10.273358 -15.085522 13.636784 3.521285 26.709926 -1.746681 -13.275487 -6.384374 6.624599 9.631274 0.047168 5.061068 2.641899 0.253040 0.210690 0.154960 18.253992 -10.341227 2.489890 -5.889897 2.753858 -27.503003 -0.257333 -5.810815 34.560549 -0.268346 -4.285510 2.749141 0.117560 0.022610 0.105490 -3.357755 -3.433527 -8.011986 2.547944 -13.340187 21.243974 -16.841066 -9.944670 13.175665 6.272465 -2.683570 -13.905444 -8.638558 5.240974 38.981840 -1.059310 1.737020 -5.082360 -9.272719 -18.246654 7.943398 -11.255602 -10.373246 1.831721 -3.019583 -3.685958 -0.048747 -3.788670 2.893038 0.147430 0.011110 0.079080 0.108420 -3.730202 18.233818 7.124273 -8.015908 6.430052 -2.895156 -148.851532 72.273620 -142.819561 2.186396 -2.155758 0.017110 0.070970 -0.078000 -0.028280 
-0.943550 16.709630 -4.199800 6.044643 -24.669871 -9.617238 -15.102986 13.760614 3.431782 27.190724 -1.735646 -10.947598 -6.080140 6.868944 10.058394 0.087456 5.276803 2.605789 0.248190 0.211260 0.132330 18.232486 -10.345914 2.425267 -6.206268 2.425613 -27.317158 -0.536466 -5.320950 32.406522 -0.193309 -3.963712 2.877521 0.131370 0.059470 0.108310 -3.278302 -3.573069 -7.894097 2.758073 -14.246750 20.010227 -17.166007 -10.964680 13.107932 6.759550 -3.128945 -13.072331 -8.758876 5.088295 36.328502 -1.422730 1.783670 -5.116920 -9.979899 -14.437559 7.644547 -13.602051 -5.407000 1.384116 -3.152393 -3.208874 -0.156209 -3.793495 2.957435 0.117200 0.041780 0.050080 0.126240 -4.012142 14.791036 6.892217 -11.038035 3.322654 -1.473568 -147.911893 64.401328 -135.402028 2.253793 -2.167878 0.007530 0.079830 -0.077070 -0.016450 
-0.917470 16.766550 -4.144310 6.650488 -26.046989 -9.135067 -15.121672 13.883288 3.362141 27.599279 -1.742673 -8.879821 -5.932395 7.198487 10.875588 0.126152 5.510083 2.555170 0.247390 0.214940 0.123000 18.203784 -10.354257 2.389702 -6.450231 2.202431 -27.132041 -0.801091 -4.853959 30.416928 -0.129262 -3.675337 2.985913 0.147610 0.085320 0.112770 -3.178255 -3.687007 -7.831240 2.809230 -14.730898 19.351742 -16.868095 -11.780603 12.286256 7.186931 -3.629380 -12.041471 -9.148261 5.049777 34.660152 -2.083880 1.977970 -4.980960 -11.280130 -10.988522 6.976403 -15.439931 -1.364778 0.857147 -2.891088 -1.987813 -0.300585 -3.820653 2.999036 0.088380 0.069120 0.026530 0.134850 -3.473337 11.748193 6.227388 -14.964005 0.090320 -0.059874 -150.654227 57.485970 -132.074706 2.334233 -2.185157 0.000830 0.083810 -0.075890 -0.010130 
-0.886430 16.842480 -4.096450 7.040421 -27.254504 -8.838828 -15.129404 13.994807 3.316761 27.784996 -1.760492 -6.715029 -5.639312 7.363567 11.192586 0.156487 5.687853 2.523324 0.249210 0.209920 0.125850 18.171490 -10.402284 2.361745 -6.856878 1.919999 -26.517814 -0.613631 -4.523006 28.016796 -0.072292 -3.382251 3.091113 0.157150 0.095920 0.121630 -3.075207 -3.728486 -7.813370 2.852801 -14.774041 18.893660 -16.554283 -12.184963 11.282315 7.691194 -3.790170 -10.942474 -9.200666 4.788479 34.787761 -2.761460 1.945740 -4.465310 -12.429232 -7.630263 5.798380 -17.453381 1.018155 0.306113 -2.256079 -0.302638 -0.427955 -3.869198 3.004687 0.076550 0.087440 0.011980 0.134710 -3.176507 8.503890 5.714904 -17.268495 -3.696499 1.552478 -154.307078 50.466985 -129.701699 2.427463 -2.216352 -0.004970 0.078890 -0.072640 -0.013980 
-0.869710 16.905880 -4.058720 7.564034 -28.164344 -8.817557 -15.114581 14.058286 3.311935 27.918958 -1.758277 -4.516927 -5.624005 7.521272 11.152417 0.214102 5.854567 2.495981 0.226740 0.176640 0.118710 18.159984 -10.465309 2.338597 -7.384062 1.701104 -25.872803 -0.587522 -4.223194 26.120698 -0.030828 -3.156327 3.175883 0.136420 0.094910 0.118900 -3.043735 -3.696262 -7.820380 2.942837 -14.991328 18.778645 -16.920031 -12.721414 10.407355 8.182973 -3.970988 -10.518835 -9.373883 4.719413 35.062182 -3.075960 2.059650 -3.827010 -12.765951 -4.819516 4.953668 -19.728376 3.961622 -0.437542 -0.723909 1.726008 -0.449274 -3.910172 2.984836 0.078800 0.086610 0.004740 0.123340 -3.819974 5.932380 5.947060 -16.703928 -7.171470 3.141207 -160.753392 44.779869 -135.554703 2.506334 -2.288682 -0.010680 0.069260 -0.062070 -0.019210 
-0.853370 16.957090 -4.013180 7.886329 -29.786419 -8.595324 -15.115030 14.114403 3.341214 27.983403 -1.781402 -1.940754 -5.744574 7.647882 10.635009 0.270558 6.063598 2.463122 0.194560 0.117930 0.121090 18.144997 -10.459204 2.334577 -7.407643 1.689563 -25.488348 -0.967539 -3.828050 24.526275 0.002834 -2.934081 3.257913 0.103220 0.091810 0.120330 -2.981912 -3.755023 -7.847578 2.938118 -15.444736 18.428167 -16.842856 -13.543102 9.454427 8.577106 -4.202431 -10.369074 -9.595586 4.960407 35.172508 -3.868110 2.780120 -3.409470 -13.131022 -2.604723 4.617004 -22.221391 8.258996 -1.405861 0.793457 2.568960 -0.402280 -3.929095 2.965353 0.103810 0.084760 0.000140 0.102340 -4.306529 4.124047 6.134239 -15.982599 -8.329669 4.233060 -165.197736 39.939036 -139.940317 2.566839 -2.285664 -0.029940 0.060910 -0.041250 -0.040560 
-0.829040 16.999470 -3.975090 7.980008 -30.844228 -8.331350 -15.116602 14.148232 3.357973 27.895126 -1.739869 0.104545 -5.821914 7.751745 10.337574 0.336707 6.196182 2.442393 0.168400 0.072730 0.129730 18.126767 -10.467883 2.361303 -7.783577 1.699597 -25.395757 -0.570383 -3.798044 23.632296 0.016210 -2.828463 3.293591 0.065200 0.069350 0.117850 -2.918442 -3.742767 -7.899479 2.711458 -15.650312 17.967648 -16.626678 -14.008290 8.842327 8.921898 -3.613759 -10.423489 -8.422606 4.667489 36.422642 -4.183960 3.198480 -2.692580 -12.989188 -1.126586 4.464712 -24.550948 11.849178 -2.409386 -0.650668 4.146136 -0.579454 -3.926895 2.937593 0.126290 0.069390 0.010310 0.082230 -5.226502 2.517545 6.612236 -14.829580 -9.382242 5.388445 -169.335943 38.801119 -148.676304 2.636497 -2.292832 -0.033400 0.040940 -0.034900 -0.056490 
